<svg width="16" height="18" viewBox="0 0 16 18" fill="none" xmlns="http://www.w3.org/2000/svg">
<path d="M6.62156 17.2009H14.4574C14.8664 17.2004 15.2585 17.0233 15.5476 16.7085C15.8368 16.3938 15.9994 15.967 15.9998 15.522V6.99509C15.9993 6.55014 15.8366 6.12358 15.5475 5.80901C15.2583 5.49443 14.8663 5.31753 14.4574 5.31714H6.62202C6.2132 5.31753 5.82123 5.49445 5.53215 5.80904C5.24307 6.12363 5.08051 6.55019 5.08014 6.99509V15.522C5.08038 15.9669 5.24282 16.3936 5.5318 16.7083C5.82078 17.0231 6.2127 17.2003 6.62156 17.2009ZM14.4574 6.56376C14.5626 6.56376 14.6634 6.60919 14.7378 6.69006C14.8122 6.77094 14.8541 6.88065 14.8542 6.99509V15.522C14.8542 15.6365 14.8124 15.7464 14.738 15.8275C14.6636 15.9086 14.5627 15.9542 14.4574 15.9543H6.62202C6.51682 15.954 6.41601 15.9084 6.3417 15.8273C6.2674 15.7463 6.22567 15.6365 6.22567 15.522V6.99509C6.22567 6.88069 6.26743 6.77098 6.34176 6.69009C6.41609 6.6092 6.5169 6.56376 6.62202 6.56376H14.4574Z" fill="#8F8F8F"/>
<path d="M1.73396 11.8808H5.65028C5.80219 11.8808 5.94787 11.8151 6.05529 11.6982C6.1627 11.5813 6.22305 11.4228 6.22305 11.2575C6.22305 11.0922 6.1627 10.9336 6.05529 10.8167C5.94787 10.6998 5.80219 10.6342 5.65028 10.6342H1.73396C1.62875 10.634 1.52789 10.5885 1.4535 10.5075C1.37911 10.4266 1.33727 10.3168 1.33715 10.2023V1.67795C1.33727 1.56351 1.37913 1.4538 1.45353 1.37292C1.52794 1.29205 1.6288 1.24662 1.73396 1.24662H9.56936C9.67452 1.24662 9.77538 1.29205 9.84978 1.37292C9.92419 1.4538 9.96605 1.56351 9.96617 1.67795V5.94039C9.96617 6.1057 10.0265 6.26424 10.1339 6.38114C10.2413 6.49803 10.387 6.5637 10.5389 6.5637C10.6908 6.5637 10.8365 6.49803 10.9439 6.38114C11.0513 6.26424 11.1117 6.1057 11.1117 5.94039V1.67795C11.1112 1.23344 10.9489 0.807251 10.6602 0.492746C10.3715 0.178241 9.98011 0.00105523 9.57165 0H1.73396C1.3251 0.000395897 0.933077 0.177291 0.643925 0.491867C0.354772 0.806444 0.192105 1.23301 0.19162 1.67795V10.2048C0.192711 10.6494 0.35563 11.0754 0.644704 11.3895C0.933778 11.7036 1.32545 11.8803 1.73396 11.8808Z" fill="#8F8F8F"/>
</svg>
